# xmcd
#
# Track frame offsets:
#	150
#	5686
#	14059
#	20902
#	29140
#	33640
#	43222
#	47597
#	60926
#	73800
#	80069
#	87737
#	92756
#	110692
#	118916
#	128276
#	134185
#	139085
#	143108
#	164394
#	168798
#	176979
#	186336
#	194721
#	207804
#	214271
#	226038
#	242266
#	263141
#	285152
#	309759
#	333118
#	347878
#
# Disc length: 4756 seconds
#
# Revision: 0
# Processed by: cddbd v1.5.1PL2 Copyright (c) Steve Scherf et al.
# Submitted via: EasyCDDAExtractor 8.1.2.3
#
DISCID=f3129221
DTITLE=Rohff - 10 ans d'avance (1994-2004)
DYEAR=2005
DGENRE=Rap
TTITLE0=Un Tueur Est Né
TTITLE1=Pour 100 Balles
TTITLE2=Guet Apens Freestyle
TTITLE3=Appelle Moi Rohff
TTITLE4=On Fait Les Choses
TTITLE5=Descente Massive
TTITLE6=Tu Peux Pas Test
TTITLE7=Rohff vs L'Etat
TTITLE8=Triomphe 1 and 2
TTITLE9=K'1 Fry Style
TTITLE10=L'Oeil Du Tigre
TTITLE11=Le Chant Du Vice
TTITLE12=O.P
TTITLE13=R.O.H.2.F
TTITLE14=Rohff Thriller
TTITLE15=Nous Contre Eux
TTITLE16=Commoria
TTITLE17=A.K.H Remix
TTITLE18=Ce Que Je Suis Devenu
TTITLE19=Les Mecs Paros
TTITLE20=Jeu De La Mort
TTITLE21=Rap Info
TTITLE22=Creuset De Voyou
TTITLE23=Génération Sacrifiée
TTITLE24=Baiser
TTITLE25=V
TTITLE26=De La Guerre
TTITLE27=A Bout Portant
TTITLE28=Pleure Pas
TTITLE29=9.4
TTITLE30=Amour Bestial
TTITLE31=Je Pousse Mon Dernier Cri
TTITLE32=Taxi 3
EXTD=
EXTT0=
EXTT1=
EXTT2=
EXTT3=
EXTT4=
EXTT5=
EXTT6=
EXTT7=
EXTT8=
EXTT9=
EXTT10=
EXTT11=
EXTT12=
EXTT13=
EXTT14=
EXTT15=
EXTT16=
EXTT17=
EXTT18=
EXTT19=
EXTT20=
EXTT21=
EXTT22=
EXTT23=
EXTT24=
EXTT25=
EXTT26=
EXTT27=
EXTT28=
EXTT29=
EXTT30=
EXTT31=
EXTT32=
PLAYORDER=
